<?xml version="1.0" encoding="utf-8"?>
<!-- Generator: Adobe Illustrator 16.0.0, SVG Export Plug-In . SVG Version: 6.00 Build 0)  -->
<!DOCTYPE svg PUBLIC "-//W3C//DTD SVG 1.1//EN" "http://www.w3.org/Graphics/SVG/1.1/DTD/svg11.dtd">
<svg version="1.1" id="레이어_1" xmlns="http://www.w3.org/2000/svg" xmlns:xlink="http://www.w3.org/1999/xlink" x="0px"
	 y="0px" width="1000px" height="1000px" viewBox="0 0 1000 1000" enable-background="new 0 0 1000 1000" xml:space="preserve">
<g id="레이어_4">
	<ellipse fill="#070001" cx="485.477" cy="482.467" rx="392.109" ry="388.384"/>
</g>
<g id="레이어_5">
	<path fill="#FFFFFF" d="M276.838,359.225c0,0-16.805-54.147,5.602-105.497c0,0,46.68-5.602,105.497,42.012
		c0,0,99.895-28.94,198.854-0.933c0,0,66.285-46.152,105.496-41.281c0,0,24.273,52.484,4.668,105.7
		c0,0,109.676,117.635-11.203,248.336c0,0-49.033,48.549-129.32,50.418c0,0,29.426,19.605,28.492,80.287v101.76
		c0,0,4.666,16.805,26.141,13.072c0,0-125.101,45.895-247.402,0.541c0,0,24.274,1.324,25.207-18.281V760.67
		c0,0-95.71,19.607-129.769-39.211c0,0-13.552-40.145-53.215-68.152c0,0-28.007-18.674,12.136-17.738c0,0,32.677-5.6,69.087,55.084
		c0,0,35.478,45.744,103.629,16.805c0,0,5.602-38.277,23.339-52.283c0,0-182.983-12.852-177.381-173.539
		C236.691,481.632,236.695,390.965,276.838,359.225z"/>
</g>
<g id="레이어_6">
	
		<ellipse transform="matrix(0.411 -0.9117 0.9117 0.411 -451.9065 603.305)" fill="#070001" cx="240.909" cy="651.356" rx="4.2" ry="6.537"/>
	
		<ellipse transform="matrix(0.5685 -0.8227 0.8227 0.5685 -438.4888 500.4372)" fill="#070001" cx="257.78" cy="668.192" rx="4.201" ry="6.532"/>
	
		<ellipse transform="matrix(0.6965 -0.7175 0.7175 0.6965 -409.8804 402.7455)" fill="#070001" cx="271.205" cy="685.953" rx="4.636" ry="7.208"/>
	
		<ellipse transform="matrix(0.5997 -0.8002 0.8002 0.5997 -448.541 511.0973)" fill="#070001" cx="286.613" cy="703.902" rx="4.674" ry="7.273"/>
	<path fill="#070001" d="M315.477,715.855c3.8,2.082,5.864,5.623,4.614,7.902c-1.25,2.285-5.344,2.449-9.144,0.367
		s-5.867-5.621-4.617-7.904C307.583,713.939,311.675,713.775,315.477,715.855z"/>
	
		<ellipse transform="matrix(0.0391 -0.9992 0.9992 0.0391 -397.8873 1039.8228)" fill="#070001" cx="341.725" cy="726.798" rx="4.854" ry="7.553"/>
	
		<ellipse transform="matrix(-0.021 -0.9998 0.9998 -0.021 -346.7216 1111.8047)" fill="#070001" cx="370.988" cy="725.66" rx="5.011" ry="7.795"/>
</g>
</svg>
