<?xml version="1.0" encoding="utf-8"?>
<!-- Generator: Adobe Illustrator 16.0.0, SVG Export Plug-In . SVG Version: 6.00 Build 0)  -->
<!DOCTYPE svg PUBLIC "-//W3C//DTD SVG 1.1//EN" "http://www.w3.org/Graphics/SVG/1.1/DTD/svg11.dtd">
<svg version="1.1" id="레이어_1" xmlns="http://www.w3.org/2000/svg" xmlns:xlink="http://www.w3.org/1999/xlink" x="0px"
	 y="0px" width="1000px" height="1000px" viewBox="0 0 1000 1000" enable-background="new 0 0 1000 1000" xml:space="preserve">
<g id="레이어_5">
	<path fill="#274C87" d="M500.813,104.594c218.614,0,395.833,177.224,395.833,395.833c0,218.613-177.219,395.833-395.833,395.833
		c-218.613,0-395.833-177.22-395.833-395.833C104.979,281.817,282.199,104.594,500.813,104.594z"/>
	<path fill="#FCFEFE" d="M438.707,527.096h-50.214v-83.688h53.738V361.48c0,0-0.881-70.476,68.713-71.356h102.189v79.284
		l-47.571,0.881c0,0-24.666-3.524-25.548,20.262l-0.881,50.213l74,0.881v85.451h-71.356l-1.763,240.495H439.588L438.707,527.096z"/>
</g>
</svg>
