<?xml version="1.0" encoding="utf-8"?>
<!-- Generator: Adobe Illustrator 16.0.0, SVG Export Plug-In . SVG Version: 6.00 Build 0)  -->
<!DOCTYPE svg PUBLIC "-//W3C//DTD SVG 1.1//EN" "http://www.w3.org/Graphics/SVG/1.1/DTD/svg11.dtd">
<svg version="1.1" id="레이어_1" xmlns="http://www.w3.org/2000/svg" xmlns:xlink="http://www.w3.org/1999/xlink" x="0px"
	 y="0px" width="1000px" height="1000px" viewBox="0 0 1000 1000" enable-background="new 0 0 1000 1000" xml:space="preserve">
<g id="레이어_5">
	<path fill="#C34133" d="M741.154,215.607L639.106,320.293c0,0-120.584-111.461-256.466-14.386c0,0-57.587,39.018-79.582,105.875
		l-118.875-91.676c0,0,54.21-116.331,201.345-172.873C385.528,147.232,565.212,72.214,741.154,215.607z"/>
	<path fill="#DCAB2C" d="M303.509,409.186c0,0-20.857,93.121,1.454,138.485l-118.454,89.362c0,0-80.301-171.124-2.323-316.925
		L303.509,409.186z"/>
	<path fill="#36924E" d="M186.055,634.492l117.831-90.431c0,0,27.961,127.082,195.981,143.046c0,0,64.79,3.824,121.683-37.17
		l115.837,90.966c0,0-91.643,91.684-244.195,86.307C493.191,827.21,285.708,824.544,186.055,634.492z"/>
	<path fill="#3F6BA5" d="M499.847,412.681v135.474l189.138,0.879c0,0-6.262,62.814-70.872,103.102l116.617,90.437
		c0,0,74.896-57.885,92.868-173.214c0,0,15.339-92.459,3.899-156.677H499.847z"/>
</g>
<g id="레이어_6">
	<path fill="none" d="M435.188,985.791"/>
</g>
</svg>
